<svg width="147" height="457" viewBox="0 0 147 457" fill="none" xmlns="http://www.w3.org/2000/svg">
<path d="M32.6025 32.3256C85.9216 81.5151 119.318 151.978 119.318 230.241C119.318 306.208 87.8524 374.826 37.2434 423.773" stroke="white" stroke-opacity="0.3" stroke-width="2"/>
<circle cx="34.5062" cy="34.5062" r="34.5062" fill="#F8B729"/>
<circle cx="34.5062" cy="421.592" r="34.5062" fill="#094036"/>
<circle cx="34.5062" cy="421.592" r="33.5062" stroke="white" stroke-opacity="0.3" stroke-width="2"/>
<circle cx="112.145" cy="159.838" r="34.5062" fill="#094036"/>
<circle cx="112.145" cy="159.838" r="33.5062" stroke="white" stroke-opacity="0.3" stroke-width="2"/>
<path opacity="0.3" d="M106.808 170.48C106.125 170.48 105.624 170.331 105.304 170.032C105.005 169.712 104.856 169.254 104.856 168.656C104.856 168.294 104.952 167.942 105.144 167.6C105.336 167.259 105.613 166.896 105.976 166.512L112.408 159.664C113.389 158.64 114.093 157.712 114.52 156.88C114.946 156.027 115.16 155.174 115.16 154.32C115.16 153.254 114.818 152.443 114.136 151.888C113.474 151.334 112.504 151.056 111.224 151.056C110.498 151.056 109.773 151.163 109.048 151.376C108.322 151.568 107.586 151.91 106.84 152.4C106.456 152.656 106.093 152.763 105.752 152.72C105.432 152.678 105.144 152.539 104.888 152.304C104.653 152.07 104.493 151.782 104.408 151.44C104.322 151.099 104.333 150.758 104.44 150.416C104.568 150.054 104.824 149.744 105.208 149.488C106.125 148.87 107.149 148.4 108.28 148.08C109.432 147.76 110.584 147.6 111.736 147.6C113.357 147.6 114.722 147.846 115.832 148.336C116.941 148.827 117.784 149.542 118.36 150.48C118.936 151.419 119.224 152.56 119.224 153.904C119.224 154.8 119.074 155.675 118.776 156.528C118.498 157.382 118.061 158.246 117.464 159.12C116.888 159.995 116.13 160.923 115.192 161.904L109.176 168.176V167.088H118.584C119.16 167.088 119.597 167.227 119.896 167.504C120.194 167.782 120.344 168.198 120.344 168.752C120.344 169.307 120.194 169.734 119.896 170.032C119.597 170.331 119.16 170.48 118.584 170.48H106.808Z" fill="white"/>
<circle cx="112.145" cy="296.261" r="34.5062" fill="#094036"/>
<circle cx="112.145" cy="296.261" r="33.5062" stroke="white" stroke-opacity="0.3" stroke-width="2"/>
<path opacity="0.3" d="M111.704 307.223C110.552 307.223 109.357 307.074 108.12 306.775C106.882 306.477 105.805 306.029 104.888 305.431C104.461 305.154 104.173 304.834 104.024 304.471C103.874 304.109 103.832 303.767 103.896 303.447C103.981 303.106 104.141 302.818 104.376 302.583C104.632 302.349 104.941 302.21 105.304 302.167C105.688 302.125 106.104 302.221 106.552 302.455C107.426 302.925 108.269 303.266 109.08 303.479C109.89 303.671 110.722 303.767 111.576 303.767C112.514 303.767 113.304 303.639 113.944 303.383C114.584 303.127 115.064 302.743 115.384 302.231C115.725 301.719 115.896 301.101 115.896 300.375C115.896 299.309 115.533 298.519 114.808 298.007C114.104 297.474 113.069 297.207 111.704 297.207H109.656C109.058 297.207 108.6 297.058 108.28 296.759C107.981 296.461 107.832 296.045 107.832 295.511C107.832 294.978 107.981 294.562 108.28 294.263C108.6 293.965 109.058 293.815 109.656 293.815H111.32C112.13 293.815 112.824 293.687 113.4 293.431C113.976 293.154 114.424 292.77 114.744 292.279C115.064 291.789 115.224 291.191 115.224 290.487C115.224 289.506 114.893 288.759 114.232 288.247C113.592 287.735 112.653 287.479 111.416 287.479C110.626 287.479 109.88 287.575 109.176 287.767C108.493 287.938 107.736 288.269 106.904 288.759C106.52 288.994 106.146 289.09 105.784 289.047C105.442 289.005 105.154 288.866 104.92 288.631C104.685 288.397 104.525 288.119 104.44 287.799C104.354 287.458 104.376 287.117 104.504 286.775C104.632 286.413 104.898 286.103 105.304 285.847C106.221 285.25 107.234 284.802 108.344 284.503C109.453 284.183 110.594 284.023 111.768 284.023C113.325 284.023 114.658 284.269 115.768 284.759C116.877 285.229 117.72 285.911 118.296 286.807C118.893 287.682 119.192 288.749 119.192 290.007C119.192 290.903 119.021 291.725 118.68 292.471C118.338 293.197 117.858 293.815 117.24 294.327C116.621 294.839 115.874 295.202 115 295.415V295.031C116.536 295.287 117.73 295.927 118.584 296.951C119.437 297.954 119.864 299.213 119.864 300.727C119.864 302.05 119.533 303.202 118.872 304.183C118.21 305.165 117.272 305.922 116.056 306.455C114.84 306.967 113.389 307.223 111.704 307.223Z" fill="white"/>
<path d="M29.9045 45.1488C29.3499 45.1488 28.9125 44.9995 28.5925 44.7008C28.2939 44.3808 28.1445 43.9541 28.1445 43.4208C28.1445 42.8661 28.2939 42.4501 28.5925 42.1728C28.9125 41.8955 29.3499 41.7568 29.9045 41.7568H33.4885V26.0448H35.4725L30.7685 28.8928C30.3632 29.1275 29.9792 29.2235 29.6165 29.1808C29.2752 29.1168 28.9765 28.9675 28.7205 28.7328C28.4859 28.4768 28.3259 28.1781 28.2405 27.8368C28.1552 27.4955 28.1765 27.1541 28.3045 26.8128C28.4539 26.4501 28.7312 26.1515 29.1365 25.9168L33.5525 23.2608C33.9792 23.0048 34.4059 22.7915 34.8325 22.6208C35.2592 22.4288 35.6539 22.3328 36.0165 22.3328C36.4645 22.3328 36.8379 22.4608 37.1365 22.7168C37.4352 22.9515 37.5845 23.3461 37.5845 23.9008V41.7568H40.8485C41.4032 41.7568 41.8299 41.8955 42.1285 42.1728C42.4485 42.4501 42.6085 42.8661 42.6085 43.4208C42.6085 43.9755 42.4485 44.4021 42.1285 44.7008C41.8299 44.9995 41.4032 45.1488 40.8485 45.1488H29.9045Z" fill="white"/>
<path opacity="0.3" d="M38.1285 432.417C37.4885 432.417 36.9872 432.246 36.6245 431.905C36.2619 431.542 36.0805 431.03 36.0805 430.369V427.873H28.1765C27.5152 427.873 26.9819 427.734 26.5765 427.457C26.1925 427.179 26.0005 426.742 26.0005 426.145C26.0005 425.803 26.0859 425.43 26.2565 425.025C26.4485 424.619 26.7792 424.086 27.2485 423.425L36.0165 410.721C36.3152 410.273 36.6459 409.931 37.0085 409.697C37.3712 409.462 37.7872 409.345 38.2565 409.345C38.8112 409.345 39.2699 409.515 39.6325 409.857C39.9952 410.177 40.1765 410.689 40.1765 411.393V424.481H41.7445C42.3632 424.481 42.8219 424.63 43.1205 424.929C43.4405 425.206 43.6005 425.622 43.6005 426.177C43.6005 426.731 43.4405 427.158 43.1205 427.457C42.8219 427.734 42.3632 427.873 41.7445 427.873H40.1765V430.369C40.1765 431.03 39.9952 431.542 39.6325 431.905C39.2699 432.246 38.7685 432.417 38.1285 432.417ZM36.0805 424.481V414.497H37.0085L29.4565 425.569V424.481H36.0805Z" fill="white"/>
</svg>
